<?xml version="1.0" standalone="no"?><!DOCTYPE svg PUBLIC "-//W3C//DTD SVG 1.1//EN" "http://www.w3.org/Graphics/SVG/1.1/DTD/svg11.dtd">
<svg t="1674892027958" class="icon" viewBox="0 0 1042 1024" version="1.1" xmlns="http://www.w3.org/2000/svg"
     p-id="31900"
     width="203.515625" height="200"><path d="M649.581714 728.722286v-68.571429h205.677715a109.750857 109.750857 0 0 0 109.750857-109.750857 109.824 109.824 0 0 0-84.425143-106.825143l-58.038857-13.677714 5.485714-59.373714c0.621714-6.582857 0.914286-13.238857 0.914286-19.931429 0-117.668571-95.378286-213.065143-213.065143-213.065143a212.790857 212.790857 0 0 0-178.779429 97.097143l-27.885714 42.861714-49.024-14.482285a91.318857 91.318857 0 0 0-117.211429 90.386285l1.645715 56.210286-54.784 12.635429a120.576 120.576 0 0 0-93.257143 117.430857 120.502857 120.502857 0 0 0 120.502857 120.502857h194.779429v68.571428H217.088c-104.411429 0-189.074286-84.662857-189.074286-189.074285 0-89.746286 62.537143-164.900571 146.413715-184.246857a159.890286 159.890286 0 0 1 205.184-158.171429c50.230857-77.238857 137.289143-128.292571 236.269714-128.292571 155.556571 0 281.654857 126.098286 281.654857 281.636571 0 8.850286-0.420571 17.609143-1.206857 26.24 78.683429 18.541714 137.252571 89.234286 137.252571 173.568 0 98.486857-79.835429 178.322286-178.322285 178.322286H649.581714z" p-id="31901" fill="#e6e6e6"></path><path d="M529.261714 366.774857c9.014857 0 16.292571 2.998857 24.868572 11.574857l144.859428 139.702857c6.418286 6.436571 10.276571 13.293714 10.276572 22.729143 0 17.554286-12.854857 29.988571-30.848 29.988572-8.594286 0-17.572571-3.419429-23.588572-10.276572L589.714286 491.52l-29.147429-30.427429 2.998857 63.853715v330.276571c0 18.011429-15.853714 33.005714-34.285714 33.005714-18.413714 0-33.846857-14.994286-33.846857-33.005714V524.928l2.56-63.853714-29.129143 30.427428-64.731429 68.992a31.268571 31.268571 0 0 1-23.131428 10.294857c-17.993143 0-31.268571-12.434286-31.268572-30.006857 0-9.435429 3.419429-16.274286 9.837715-22.710857l144.859428-139.702857c8.576-8.594286 16.274286-11.593143 24.868572-11.593143z" p-id="31902" fill="#e6e6e6"></path></svg>