<?xml version="1.0" standalone="no"?><!DOCTYPE svg PUBLIC "-//W3C//DTD SVG 1.1//EN" "http://www.w3.org/Graphics/SVG/1.1/DTD/svg11.dtd">
<svg t="1674891830296" class="icon" viewBox="0 0 1024 1024" version="1.1" xmlns="http://www.w3.org/2000/svg"
     p-id="20043"
     width="200" height="200"><path d="M35.108571 927.030857l63.067429 63.049143c34.706286 33.92 74.221714 31.122286 109.348571-7.588571l417.828572-454.930286c17.152 11.977143 33.097143 11.574857 52.662857 7.588571l42.697143-8.777143 28.342857 28.342858-2.011429 21.138285c-2.779429 21.942857 3.602286 38.710857 23.954286 59.062857l33.517714 33.115429c20.352 20.754286 47.488 21.942857 67.035429 2.395429l132.900571-132.882286c19.547429-19.565714 18.358857-46.299429-2.011428-67.053714l-33.517714-33.517715c-20.333714-20.352-37.504-27.538286-59.062858-24.338285l-21.540571 2.377142-27.136-27.117714 11.977143-46.701714c5.577143-23.131429-0.402286-41.892571-25.545143-66.633143l-98.56-98.176c-144.877714-144.054857-330.422857-139.666286-457.325714-11.574857-17.572571 17.554286-19.163429 41.508571-7.990857 59.062857 9.179429 15.177143 28.726857 24.338286 55.460571 17.554286 61.860571-15.542857 123.721143-10.770286 184.374857 30.336l-25.545143 64.658285c-9.581714 23.936-8.777143 43.483429 0.804572 61.44L42.697143 817.700571C4.388571 853.174857 0 891.885714 35.126857 927.012571z m320.054858-746.24c108.946286-81.426286 244.626286-68.260571 342.802285 29.915429l107.337143 106.550857c9.581714 9.581714 10.788571 17.152 7.990857 29.129143l-15.158857 63.853714 64.237714 64.256 39.131429-3.602286c11.556571-1.188571 15.140571-0.402286 24.722286 8.777143l25.142857 25.545143-112.128 112.530286-25.545143-25.526857c-9.179429-9.179429-9.984-12.781714-8.777143-24.356572l3.584-39.497143-63.835428-63.853714-66.249143 12.763429c-11.574857 2.395429-17.554286 2.395429-27.538286-7.570286L562.285714 380.708571c-9.581714-9.581714-10.788571-15.177143-5.595428-27.940571l39.131428-93.385143c-65.462857-62.646857-152.064-97.371429-235.465143-70.619428-3.584 1.188571-5.979429 0.384-7.186285-1.206858-1.188571-1.993143-1.188571-3.986286 2.011428-6.765714zM87.003429 898.285714c-20.352-20.352-13.165714-32.731429 0.384-45.110857l448.164571-413.44 49.883429 50.285714L170.788571 936.630857c-12.379429 13.568-27.940571 17.554286-44.708571 1.188572z" p-id="20044" fill="#e6e6e6"></path></svg>