<?xml version="1.0" standalone="no"?><!DOCTYPE svg PUBLIC "-//W3C//DTD SVG 1.1//EN" "http://www.w3.org/Graphics/SVG/1.1/DTD/svg11.dtd">
<svg t="1674892045592" class="icon" viewBox="0 0 1024 1024" version="1.1" xmlns="http://www.w3.org/2000/svg"
     p-id="32130"
     width="200" height="200"><path d="M506.642286 688.566857l56.996571-57.856c-56.557714-4.278857-93.421714-21.430857-121.289143-49.28-74.989714-75.008-74.569143-181.284571-0.420571-255.433143l139.702857-139.702857c75.008-74.587429 180.443429-75.008 255.012571 0 75.428571 74.989714 74.569143 180.845714 0.438858 254.994286l-84.004572 84.004571c11.995429 27.428571 14.573714 59.136 10.276572 86.985143l125.568-125.568c102.875429-102.857143 103.716571-248.137143-0.420572-352.274286-104.137143-104.155429-249.417143-103.296-352.292571-0.438857l-146.139429 146.578286c-102.857143 102.857143-103.716571 248.576 0.438857 352.274286 26.989714 27.008 61.275429 46.299429 116.132572 55.716571z m10.715428-353.133714l-56.996571 57.856c56.576 4.717714 93.44 21.430857 121.289143 49.28 74.989714 75.008 74.569143 181.284571 0.420571 255.433143l-140.141714 139.702857c-74.569143 74.587429-180.425143 75.008-254.994286 0.438857-75.008-75.428571-74.569143-180.845714 0-255.433143l83.986286-84.004571c-11.995429-26.989714-14.994286-59.136-10.697143-86.985143l-125.586286 125.568c-102.418286 102.857143-103.277714 248.576 0.438857 352.274286 104.137143 104.155429 249.856 103.296 352.274286 0.859428l146.578286-146.998857c102.857143-102.857143 103.716571-248.557714-0.420572-352.274286-27.008-27.008-61.293714-46.299429-116.150857-55.716571z" p-id="32131" fill="#e6e6e6"></path></svg>